<svg xmlns="http://www.w3.org/2000/svg" viewBox="0 0 1000 1000"><path stroke="#000" stroke-miterlimit="10" d="M450 0h100v1000H450z"/><path stroke="#000" stroke-miterlimit="10" d="M549 1v998h-98V1h98m1-1H450v1000h100V0z"/><path stroke="#000" stroke-miterlimit="10" d="M932.51 174L499.5 924 66.49 174h173.7L500 624l259.81-450h172.7z"/><path stroke="#000" stroke-miterlimit="10" d="M930.78 175L499.5 922 68.22 175h171.39l259.52 449.5.87 1.5.87-1.5L760.39 175h170.39m1.73-1h-172.7L500 624 240.19 174H66.49l433 750 433-750z"/><path stroke="#000" stroke-miterlimit="10" d="M846.41 174L500 774 153.59 174h86.6L500 624l259.81-450h86.6z"/><path stroke="#000" stroke-miterlimit="10" d="M844.68 175L500 772 155.32 175h84.29l259.52 449.5.87 1.5.87-1.5L760.39 175h84.29m1.73-1h-86.6L500 624 240.19 174h-86.6L500 774l346.41-600z"/></svg>